<?xml version="1.0" encoding="UTF-8" standalone="no"?>
<!-- Created with Inkscape (http://www.inkscape.org/) -->

<svg
   xmlns:dc="http://purl.org/dc/elements/1.1/"
   xmlns:cc="http://creativecommons.org/ns#"
   xmlns:rdf="http://www.w3.org/1999/02/22-rdf-syntax-ns#"
   xmlns:svg="http://www.w3.org/2000/svg"
   xmlns="http://www.w3.org/2000/svg"
   xmlns:sodipodi="http://sodipodi.sourceforge.net/DTD/sodipodi-0.dtd"
   xmlns:inkscape="http://www.inkscape.org/namespaces/inkscape"
   width="22"
   height="18"
   id="svg3798"
   version="1.1"
   inkscape:version="0.48.4 r9939"
   sodipodi:docname="alien.svg">
  <defs
     id="defs3800" />
  <sodipodi:namedview
     id="base"
     pagecolor="#ffffff"
     bordercolor="#666666"
     borderopacity="1.0"
     inkscape:pageopacity="0.0"
     inkscape:pageshadow="2"
     inkscape:zoom="1"
     inkscape:cx="1.9624422"
     inkscape:cy="5.3534541"
     inkscape:document-units="px"
     inkscape:current-layer="layer1"
     showgrid="true"
     inkscape:snap-bbox="true"
     fit-margin-top="0"
     fit-margin-left="0"
     fit-margin-right="0"
     fit-margin-bottom="0"
     inkscape:window-width="1918"
     inkscape:window-height="1060"
     inkscape:window-x="0"
     inkscape:window-y="18"
     inkscape:window-maximized="0">
    <inkscape:grid
       type="xygrid"
       id="grid3806"
       empspacing="5"
       visible="true"
       enabled="true"
       snapvisiblegridlinesonly="true"
       originx="176px"
       originy="-609.99999px" />
  </sodipodi:namedview>
  <metadata
     id="metadata3803">
    <rdf:RDF>
      <cc:Work
         rdf:about="">
        <dc:format>image/svg+xml</dc:format>
        <dc:type
           rdf:resource="http://purl.org/dc/dcmitype/StillImage" />
        <dc:title></dc:title>
      </cc:Work>
    </rdf:RDF>
  </metadata>
  <g
     inkscape:label="Layer 1"
     inkscape:groupmode="layer"
     id="layer1"
     transform="translate(176,-424.36218)">
    <path
       style="fill:#c8c8c8;fill-opacity:1;stroke:none"
       d="m -172,424.36218 0,2 2,0 0,-2 -2,0 z m 2,2 0,2 -2,0 0,2 -2,0 0,2 -2,0 0,6 2,0 0,-4 2,0 0,4 0,2 2,0 0,-2 10,0 0,2 2,0 0,-2 0,-4 2,0 0,4 2,0 0,-6 -2,0 0,-2 -2,0 0,-2 -2,0 0,-2 -2,0 0,2 -6,0 0,-2 -2,0 z m 10,0 2,0 0,-2 -2,0 0,2 z m 0,14 -4,0 0,2 4,0 0,-2 z m -10,0 0,2 4,0 0,-2 -4,0 z m 0,-10 2,0 0,4 -2,0 0,-4 z m 8,0 2,0 0,4 -2,0 0,-4 z"
       id="rect3808"
       inkscape:connector-curvature="0" />
  </g>
</svg>
