<?xml version="1.0" encoding="UTF-8" standalone="no"?>
<!-- Created with Inkscape (http://www.inkscape.org/) -->

<svg
   xmlns:dc="http://purl.org/dc/elements/1.1/"
   xmlns:cc="http://creativecommons.org/ns#"
   xmlns:rdf="http://www.w3.org/1999/02/22-rdf-syntax-ns#"
   xmlns:svg="http://www.w3.org/2000/svg"
   xmlns="http://www.w3.org/2000/svg"
   xmlns:sodipodi="http://sodipodi.sourceforge.net/DTD/sodipodi-0.dtd"
   xmlns:inkscape="http://www.inkscape.org/namespaces/inkscape"
   version="1.1"
   width="2090"
   height="880"
   id="svg2"
   inkscape:version="0.48.4 r9939"
   sodipodi:docname="cave.svg">
  <sodipodi:namedview
     pagecolor="#ffffff"
     bordercolor="#666666"
     borderopacity="1"
     objecttolerance="10"
     gridtolerance="10"
     guidetolerance="10"
     inkscape:pageopacity="0"
     inkscape:pageshadow="2"
     inkscape:window-width="1918"
     inkscape:window-height="1060"
     id="namedview16"
     showgrid="true"
     inkscape:zoom="0.91592426"
     inkscape:cx="489.66348"
     inkscape:cy="465.13739"
     inkscape:window-x="0"
     inkscape:window-y="18"
     inkscape:window-maximized="0"
     inkscape:current-layer="svg2"
     fit-margin-top="0"
     fit-margin-left="0"
     fit-margin-right="0"
     fit-margin-bottom="0"
     inkscape:snap-page="true">
    <inkscape:grid
       type="xygrid"
       id="grid3785"
       empspacing="5"
       visible="true"
       enabled="true"
       snapvisiblegridlinesonly="true"
       originx="180px"
       originy="160px" />
  </sodipodi:namedview>
  <defs
     id="defs4" />
  <metadata
     id="metadata7">
    <rdf:RDF>
      <cc:Work
         rdf:about="">
        <dc:format>image/svg+xml</dc:format>
        <dc:type
           rdf:resource="http://purl.org/dc/dcmitype/StillImage" />
        <dc:title />
      </cc:Work>
    </rdf:RDF>
  </metadata>
  <path
     inkscape:connector-curvature="0"
     style="fill:#ff0000;stroke:none"
     id="start"
     d="m 270.41013,280.8082 10.00001,0 0,10 -10.00001,0 z" />
  <path
     style="fill:#000000;fill-opacity:1;stroke:none"
     d="M 1620,-572.75 C 1000.9188,-572.75 381.83766,-381.83766 0,0 c -207.41799,207.41799 -207.41799,672.58201 0,880 763.67532,763.6753 2476.3247,763.6753 3240,0 94.2809,-94.2809 82.055,-294.90594 0,-400 -16.9161,-21.6657 -52.515,-19.63842 -80,-20 -61.4583,-0.80852 -126.1206,10.42314 -180,40 -24.7942,13.61065 -36.2135,44.69634 -60,60 -49.8996,32.10416 -116.6928,94.28179 -166.7188,62.375 -11.9445,-7.61831 -0.2168,-28.5431 -3.2812,-42.375 -6.1603,-27.8058 -24.9185,-51.97699 -30,-80 -3.5685,-19.67907 7.6537,-41.52241 0,-60 -7.2159,-17.42084 -21.2851,-42.30391 -40,-40 -19.2909,2.37482 -21.8783,32.34168 -30,50 -4.4046,9.57657 -5.8118,20.32682 -10,30 -10.2463,23.66544 -11.2223,64.62957 -36.7812,68.0625 C 2553.8495,554.69352 2549.3663,446.65246 2500,440 c -38.5248,-5.19148 -68.5268,37.18447 -100,60 -53.5698,38.83373 -84.8547,118.4298 -150,130 -50.897,9.03962 -93.9461,-46.89288 -145,-55 -34.6061,-5.49529 -76.6082,25.535 -105,5 -37.4128,-27.05971 -20.6058,-90.32798 -37.0625,-133.46875 C 1956.7742,430.37434 1957.1871,401.90635 1940,400 c -17.0147,-1.88723 -24.5839,24.66211 -32.25,39.96875 -12.1939,24.34709 6.6813,74.7361 -20.1875,79.15625 -12.855,2.11475 -8.274,-33.51147 -21.2813,-32.78125 -10.1628,0.57053 -9.1052,18.20781 -13.6562,27.3125 -9.0958,18.19688 -14.4823,38.78082 -27.2812,54.59375 -14.5028,17.91814 -31.0402,44.29206 -54.0626,43.125 -23.9018,-1.21164 -21.3436,-19.0625 -51.3124,-50.21875 C 1690,530 1651.6617,513.64409 1635.7813,492.3125 c -15.8804,-21.33159 3.302,-34.28695 -19.5313,-46.90625 -13.3644,-7.38608 -27.4813,19.32874 -42.5625,16.9375 -16.5988,-2.63187 -21.9782,-31.89207 -38.7813,-32.21875 -23.6135,-0.45909 -33.731,35.90604 -56.2187,43.125 -20.9785,6.73445 -44.7618,3.44553 -66.0625,-2.1875 -23.05,-6.09564 -40.0392,-38.45899 -63.3125,-33.28125 -25.8578,5.75272 -21.7744,59.80527 -48.0313,63.3125 C 1246.5359,508.40631 1224.7745,392.9098 1170,400 c -17.5882,2.27668 -16.1305,35.30089 -32.5,42.125 -30.2288,12.60176 -65.9245,-20.81823 -97.5,-12.125 -36.6425,10.08825 -52.01541,71.27093 -90,70 -31.40479,-1.05077 -38.97953,-64.01838 -70.375,-62.71875 C 850.80377,438.47432 844.94414,485.51288 820,500 c -15.1312,8.78794 -36.69427,2.4422 -50.96875,12.5625 -22.51806,15.96482 -17.96213,65.58479 -45.3125,69.3125 -21.84524,2.97739 -36.59753,-25.91556 -49.6875,-43.65625 C 652.72905,509.34812 664.22871,450.75604 630,440 c -18.54255,-5.82682 -31.62235,36.3277 -50,30 -43.89867,-15.11498 -4.84079,-119.22032 -50,-130 -29.85621,-7.12679 -37.61789,61.9091 -68.3125,61.75 -25.75605,-0.1335 -31.041,-51.49454 -56.78125,-52.40625 -32.6036,-1.1548 -43.91641,58.53514 -76.4375,61.125 -32.72704,2.60626 -67.9284,-20.94971 -85.6875,-48.5625 -11.61851,-18.06507 -10.59932,-43.28529 -5.65625,-64.1875 4.17612,-17.65912 16.3136,-32.95537 28.5625,-46.34375 16.258,-17.77043 34.12363,-39.41118 57.90625,-43.21875 39.13232,-6.26504 77.61006,19.42857 112.71875,37.8125 35.84388,18.76889 57.94083,63.13931 97.28125,72.59375 19.2868,4.63508 38.90653,-11.87869 58.65625,-10.03125 C 612.69788,310.444 631.86093,320.3694 650,330 c 25.32617,13.44646 49.28466,30.17333 70,50 21.50145,20.57905 25.32343,68.50827 55.03125,70.3125 24.14446,1.46635 37.9707,-31.13574 51.3125,-51.3125 14.49507,-21.92084 8.57666,-57.18289 29.46875,-73.125 12.53057,-9.56169 31.81528,-9.80619 46.96875,-5.46875 C 938.53905,330.64136 952.8276,391.26116 990,390 c 13.8604,-0.47025 17.5381,-23.68629 30.6875,-28.09375 14.5539,-4.87824 31.1537,-0.10766 45.8437,4.34375 15.4329,4.67647 26.4947,23.8637 42.5938,22.9375 14.6179,-0.84098 21.5664,-22.854 36.0312,-25.125 23.3134,-3.66022 45.4221,28.57054 67.6876,20.75 19.5232,-6.85735 17.9942,-39.43375 34.9374,-51.3125 44.5946,-31.26491 105.7905,-54.81506 158.3126,-40.40625 31.7656,8.71456 41.0478,53.93763 69.875,69.875 41.4915,22.93897 96.3188,-4.83854 135.25,22.21875 34.3149,23.8489 55.375,35.34375 68.7812,74.8125 8.6635,25.50579 59.5891,48.25934 84.1875,37.28125 17.4004,-7.76568 27.553,-26.50687 39.3125,-41.5 14.9241,-19.02792 39.0938,-61.125 39.0938,-61.125 L 1850,410 l 10,10 c 0,0 20,-20 20,-40 0,-7.09362 -6.4517,-23.73177 -2.875,-34.8125 8.1886,-25.36881 36.6755,-38.96582 51.9375,-60.8125 11.6872,-16.72957 13.4746,-41.71749 30.375,-53.15625 22.4537,-15.19741 53.6828,-7.66738 80.5625,-11.21875 53.2853,-7.04011 106.7795,-27.5145 160,-20 50.2732,7.09835 97.9575,31.53585 140,60 39.0355,26.4283 56.4479,81.96013 100,100 18.4776,7.65367 40.535,-4.59506 60,0 14.5083,3.42495 25.4917,16.57505 40,20 2.4432,0.57677 5.443,-1.39345 7.5312,0 9.008,6.01103 9.068,19.71851 12.4688,30 4.316,13.0484 -1.7851,32.92893 10,40 11.7851,7.07107 30.5157,-0.0533 40,-10 11.7292,-12.30101 9.0975,-33.02724 10,-50 0.8142,-15.31286 -9.4042,-31.39263 -4.1875,-45.8125 0.6715,-1.85627 2.808,-2.77551 4.1875,-4.1875 22.5515,-23.08279 34.5848,-69.16718 66.8438,-70.03125 24.3238,-0.65153 39.0786,30.18437 53.1562,50.03125 18.9935,26.77732 25.1705,60.71071 40,90 12.1394,23.97616 13.2071,67.91137 40,70 21.2792,1.65881 26.9286,-33.12711 40,-50 20.4141,-26.35103 36.6395,-56.22193 60,-80 14.753,-15.01673 28.8643,-37.04386 49.8438,-38.78125 34.0524,-2.82003 56.3671,43.69925 90.1562,48.78125 33.6154,5.05588 66.172,-16.65037 100,-20 26.5369,-2.62767 61.1438,18.85618 80,0 80.1388,-80.13877 80.1388,-259.861231 0,-340 -381.8376,-381.83766 -1000.9188,-572.75 -1620,-572.75 z"
     id="path3015"
     inkscape:connector-curvature="0"
     sodipodi:nodetypes="ssssssssssssssssssssssssssssszzsssssssssssssssssssssssssssssssssssssssssssssssscccsassssssssssssscsssssssssssss" />
  <path
     style="fill:#000000;fill-opacity:1;stroke:none"
     d="m 620,380 c 10,-10 20,-20 20,-20 0,0 -10,-10 10,10 20,20 40,20 20,30 -20,10 0,20 -20,10 -20,-10 -30,-30 -30,-30 z"
     id="path3787"
     inkscape:connector-curvature="0" />
  <path
     style="fill:#000000;fill-opacity:1;stroke:none"
     d="m 1282,378 c 11.4536,-12.10756 25.237,-22.26489 40,-30 9.3369,-4.89211 19.4636,-10.30963 30,-10 17.9428,0.52727 33.6248,12.64645 50,20 13.5989,6.10679 30.2328,8.73836 40,20 6.9064,7.96318 14.714,20.57191 10,30 -4.714,9.42809 -19.9385,13.14296 -30,10 -15.9086,-4.96946 -14.2939,-34.42369 -30,-40 -12.9516,-4.59835 -27.4312,4.43994 -40,10 -10.9911,4.86213 -20.7056,12.3804 -30,20 -10.7914,8.86475 -16.9531,24.9549 -32,22 -11.7509,-2.52215 -27.7272,-8.19835 -30,-20 -2.4479,-12.71076 8.7657,-17.40358 22,-32 z"
     id="path3789"
     inkscape:connector-curvature="0"
     sodipodi:nodetypes="caaaaaaaaccac" />
  <path
     style="fill:#000000;fill-opacity:1;stroke:none"
     d="m 891.68555,390.03618 c 6.68149,-10 0,-20 13.36298,-20 13.36298,0 13.36298,0 20.04447,10 6.68149,10 13.36298,30 13.36298,30 0,0 -6.68149,0 -6.68149,10 0,10 -13.36298,0 -20.04447,0 -6.68149,0 -15.31994,-2.92893 -20.04447,-10 -6.68149,-10 0,-20 0,-20 z"
     id="path3793"
     inkscape:connector-curvature="0"
     sodipodi:nodetypes="csscsssc" />
  <path
     style="fill:#000000;stroke:none;stroke-width:1px;stroke-linecap:butt;stroke-linejoin:miter;stroke-opacity:1;fill-opacity:1"
     d="m 2020,300 c 20,0 20,-20 60,20 40,40 0,0 40,0 40,0 20,0 60,-20 40,-20 40,20 40,40 0,20 0,40 -20,60 -20,20 0,100 -40,60 -40,-40 -40,-40 -40,-60 0,-20 -20,-40 -40,-40 -20,0 -20,20 -40,0 -20,-20 -20,-60 -20,-60 z"
     id="path3803"
     inkscape:connector-curvature="0" />
  <path
     style="fill:#000000;stroke:none;stroke-width:1px;stroke-linecap:butt;stroke-linejoin:miter;stroke-opacity:1;fill-opacity:1"
     d="m 2025,430 c 0,20 -5,30 5,40 10,10 5,5 20,20 15,15 25,15 30,20 5,5 5,-10 20,-10 15,0 20,0 5,-20 -15,-20 -20,-10 -25,-25 -5,-15 10,-20 0,-30 -10,-10 -20,10 -25,10 -5,0 -30,-5 -30,-5 z"
     id="path3805"
     inkscape:connector-curvature="0" />
  <path
     style="fill:#000000;stroke:none;stroke-width:1px;stroke-linecap:butt;stroke-linejoin:miter;stroke-opacity:1;fill-opacity:1"
     d="m 2155,500 c 5,15 -5,25 0,40 5,15 15,30 25,40 10,10 20,15 30,10 10,-5 15,-10 25,-20 10,-10 20,-5 15,-20 -5,-15 15,-25 -10,-20 -25,5 -10,25 -35,10 -25,-15 -15,-5 -30,-20 -15,-15 -20,-20 -20,-20 z"
     id="path3807"
     inkscape:connector-curvature="0" />
  <path
     style="fill:#000000;stroke:none;stroke-width:1px;stroke-linecap:butt;stroke-linejoin:miter;stroke-opacity:1;fill-opacity:1"
     d="m 2220,490 c 20,-15 20,-25 25,-35 5,-10 15,-10 15,-20 0,-10 -20,-45 15,-15 35,30 52.3607,50 30,50 -10,0 0,0 -25,5 -25,5 -15,15 -30,15 -15,0 -30,0 -30,0 z"
     id="path3809"
     inkscape:connector-curvature="0"
     sodipodi:nodetypes="cssssssc" />
  <path
     style="fill:#000000;stroke:none;stroke-width:1px;stroke-linecap:butt;stroke-linejoin:miter;stroke-opacity:1;fill-opacity:1"
     d="m 2245,275 c 15,35 30,25 25,50 -5,25 -10,25 5,40 15,15 20,25 30,25 10,0 10,5 20,-10 10,-15 20,-10 15,-25 -5,-15 0,-30 -20,-20 -20,10 -10,5 -20,-15 -10,-20 5,-20 -15,-30 -20,-10 -40,-15 -40,-15 z"
     id="path3811"
     inkscape:connector-curvature="0" />
  <path
     style="fill:#000000;stroke:none;stroke-width:1px;stroke-linecap:butt;stroke-linejoin:miter;stroke-opacity:1;fill-opacity:1"
     d="m 2345,430 c 18.1921,-0.65282 14.0905,2.61488 22.8092,-16.12932 6.3523,-13.73052 19.6785,-12.59639 28.8087,-20.04089 4.0012,-3.27098 9.1091,-1.03244 11.1891,3.16761 3.6744,4.86864 7.0346,10.43725 12.7066,13.21186 4.6268,2.14221 3.6869,7.4463 -0.3467,9.51199 -12.48,16.07439 -19.5125,14.69669 -40.1669,20.27875 -4.4438,1.47138 -7.4485,18.08616 -9.0163,22.87496 C 2357.5872,456.07962 2348.3626,444.16892 2345,430 z"
     id="path3813"
     inkscape:connector-curvature="0"
     sodipodi:nodetypes="ccccccccc" />
  <path
     style="fill:none;stroke:#ff0e0e;stroke-width:1px;stroke-linecap:butt;stroke-linejoin:miter;stroke-opacity:1"
     d="m 310,350 10,30 10,-20 60,-50 60,50 20,20 0,-20 50,-30 10,0 10,0 100,20 10,10 10,0 10,10 20,0 10,20 -90,20 20,10 20,10 50,30 10,-10 10,10 -10,10 -10,30 10,-10 10,10 -10,10 50,-30 10,0 10,0 10,0 10,0 10,-10 10,-10 40,-80 10,-10 10,-20 10,0 20,0 10,0 10,20 20,10 10,20 -50,40 20,0 10,10 20,0 20,-30 20,0 0,0 0,-10 -10,0 -10,0 0,20 10,0 10,0 40,-30 30,0 30,20 10,0 10,0 10,-10 10,-10 10,-10 20,0 10,0 10,0 40,10 180,-70 10,10 0,-10 10,0 0,10 0,10 10,-10 0,10 0,10 10,-10 0,20 10,0 -110,40 30,0 -10,10 -10,0 130,-10 10,-10 10,-10 10,10 10,10 10,-10 10,-10 10,10 10,10 10,-10 10,-10 10,10 10,10 10,10 10,10 10,10 10,10 10,10 10,10 10,10 10,10 190,-50 10,-20 10,-20 -10,0 -10,20 -10,20 270,130 0,-10 10,0 0,30 10,-10 10,10 10,0 20,20 10,-10 20,-10 10,10 -20,10 20,10 10,-10 0,-20 -10,-10 0,0 10,0 10,10 0,10 20,10 0,-20 -10,-10 -10,-10 10,-20 20,30 -220,-190 20,-10 0,20 -20,10 40,-10 -10,30 10,30 0,-30 20,20 50,50 10,-10 20,-10 0,20 -10,10 c 0,0 10,-60 10,-70 0,-10 10,-20 10,-20 l 20,10 -20,20 10,-80 10,-10 20,10 -10,10 -10,-10 0,-30 10,-20 -20,-10 -10,-30 -240,40 -20,0 20,-30 90,-30 40,0 30,0 30,0 120,0 30,30 30,30 30,30 -20,10 10,10 20,-10 50,30 30,0 0,30 -30,0 10,-20 10,0 0,10 -10,0 40,-10 0,20 20,0 0,-20 20,0 0,20 30,50 30,30 -1125,-90 z"
     id="coins"
     inkscape:connector-curvature="0"
     sodipodi:nodetypes="cccccccccccccccccccccccccccccccccccccccccccccccccccccccccccccccccccccccccccccccccccccccccccccccccccccccccccccccccccccccccccccccccccccccccccccccccccccccscccccccccccccccccccccccccccccccccccccccccccc" />
</svg>
