<?xml version="1.0" encoding="UTF-8" standalone="no"?>
<!-- Created with Inkscape (http://www.inkscape.org/) -->

<svg
   xmlns:dc="http://purl.org/dc/elements/1.1/"
   xmlns:cc="http://creativecommons.org/ns#"
   xmlns:rdf="http://www.w3.org/1999/02/22-rdf-syntax-ns#"
   xmlns:svg="http://www.w3.org/2000/svg"
   xmlns="http://www.w3.org/2000/svg"
   xmlns:xlink="http://www.w3.org/1999/xlink"
   xmlns:sodipodi="http://sodipodi.sourceforge.net/DTD/sodipodi-0.dtd"
   xmlns:inkscape="http://www.inkscape.org/namespaces/inkscape"
   width="371"
   height="329.33704"
   id="svg2"
   version="1.1"
   inkscape:version="0.48.4 r9939"
   sodipodi:docname="racetrack.svg">
  <defs
     id="defs4" />
  <sodipodi:namedview
     id="base"
     pagecolor="#ffffff"
     bordercolor="#666666"
     borderopacity="1.0"
     inkscape:pageopacity="0.0"
     inkscape:pageshadow="2"
     inkscape:zoom="1.4"
     inkscape:cx="279.34668"
     inkscape:cy="126.47538"
     inkscape:document-units="px"
     inkscape:current-layer="layer1"
     showgrid="true"
     fit-margin-top="0"
     fit-margin-left="0"
     fit-margin-right="0"
     fit-margin-bottom="0"
     inkscape:window-width="1918"
     inkscape:window-height="1060"
     inkscape:window-x="0"
     inkscape:window-y="18"
     inkscape:window-maximized="0">
    <inkscape:grid
       type="xygrid"
       id="grid2985"
       empspacing="5"
       visible="true"
       enabled="true"
       snapvisiblegridlinesonly="true"
       originx="-79.5px"
       originy="-664.02106px" />
  </sodipodi:namedview>
  <metadata
     id="metadata7">
    <rdf:RDF>
      <cc:Work
         rdf:about="">
        <dc:format>image/svg+xml</dc:format>
        <dc:type
           rdf:resource="http://purl.org/dc/dcmitype/StillImage" />
        <dc:title />
      </cc:Work>
    </rdf:RDF>
  </metadata>
  <g
     inkscape:label="Layer 1"
     inkscape:groupmode="layer"
     id="layer1"
     transform="translate(-79.5,-59.004097)">
    <path
       style="fill:none;stroke:#000000;stroke-width:1px;stroke-linecap:butt;stroke-linejoin:miter;stroke-opacity:1"
       d="m 80,142.36218 0,80 c 0,-40 0,-50 0,-80 0,-30 10,-49.999997 30,-59.999997 20,-10 50,-40 70,0 20,39.999997 60,39.999997 70,29.999997 10,-10 70,-99.999997 100,-19.999997 30,79.999997 30,79.999997 0,109.999997 -30,30 -10,50 30,80 40,30 70,40 70,80 0,40 -110,30 -160,-10 -50,-40 -50,-70 -90,-50 -40,20 -80,50 -100,20 -20,-30 -20,-100 -20,-180 z"
       id="track-outer"
       inkscape:connector-curvature="0"
       inkscape:label="#track-outer" />
    <path
       sodipodi:type="inkscape:offset"
       inkscape:radius="-31.54767"
       inkscape:original="M 315.53125 59.53125 C 287.38672 60.793456 256.875 105.5 250 112.375 C 240 122.375 200 122.375 180 82.375 C 160 42.375 130 72.375 110 82.375 C 90 92.375 80 112.375 80 142.375 C 80 222.375 80 292.375 100 322.375 C 120 352.375 160 322.375 200 302.375 C 240 282.375 240 312.375 290 352.375 C 340 392.375 450 402.375 450 362.375 C 450 322.375 420 312.375 380 282.375 C 340 252.375 320 232.375 350 202.375 C 380 172.375 380 172.375 350 92.375 C 340.625 67.375 328.32422 58.95752 315.53125 59.53125 z "
       style="fill:none;stroke:#000000;stroke-width:1px;stroke-linecap:butt;stroke-linejoin:miter;stroke-opacity:1"
       id="track-inner"
       d="m 315.0625,92.5625 c -3.46166,2.092745 -10.91738,6.434655 -17.78125,13.40625 -4.97363,5.05169 -9.74292,10.63767 -13.75,15.5 -4.00708,4.86233 -5.66179,7.66179 -11.21875,13.21875 -19.87171,19.87171 -40.00872,17.83853 -61.875,11.875 -21.86628,-5.96353 -44.89397,-22.56919 -58.65625,-50.09375 -0.37573,-0.751461 -0.3856,-0.591039 -0.6875,-1.125 -4.96292,2.748621 -14.37861,8.93931 -27,15.25 -8.71316,4.35658 -12.53125,8.79184 -12.53125,31.78125 0,40 0.035,76.96857 2.375,106.21875 2.19455,27.43184 7.77305,47.48045 11.53125,54.53125 1.51366,-0.26169 3.58214,-0.71014 6.40625,-1.71875 12.12267,-4.32952 32.15011,-16.30943 54.03125,-27.25 12.82171,-6.41085 26.21915,-10.88563 41.0625,-9.4375 14.84335,1.44813 27.13159,9.34613 35.25,16.5625 16.23683,14.43274 25.50422,28.87212 47.5,46.46875 17.18903,13.75123 53.51956,26.09288 81.375,28.15625 11.45598,0.84859 21.28429,-0.15816 26.875,-1.40625 -0.80158,-4.98919 -2.98376,-6.96664 -9.0625,-12.4375 -8.52702,-7.67432 -26.16121,-18.17559 -47.84375,-34.4375 -20.67302,-15.50476 -39.01406,-28.12187 -50.53125,-51.15625 -5.7586,-11.51719 -8.33118,-27.12472 -4.65625,-41.15625 3.67493,-14.03153 11.83388,-25.27138 21.8125,-35.25 7.5,-7.5 12.02149,-12.47014 13.15625,-14.125 0.0177,-0.0259 0.0146,-0.008 0.0312,-0.0312 -0.1182,-2.64201 -5.56881,-22.90223 -20.40625,-62.46875 -2.17584,-5.802247 -4.01092,-8.866139 -5.40625,-10.875 z" />
    <path
       sodipodi:type="inkscape:offset"
       inkscape:radius="-15.207047"
       inkscape:original="M 315.53125 59.53125 C 287.38672 60.793456 256.875 105.5 250 112.375 C 240 122.375 200 122.375 180 82.375 C 160 42.375 130 72.375 110 82.375 C 90 92.375 80 112.375 80 142.375 C 80 222.375 80 292.375 100 322.375 C 120 352.375 160 322.375 200 302.375 C 240 282.375 240 312.375 290 352.375 C 340 392.375 450 402.375 450 362.375 C 450 322.375 420 312.375 380 282.375 C 340 252.375 320 232.375 350 202.375 C 380 172.375 380 172.375 350 92.375 C 340.625 67.375 328.32422 58.95752 315.53125 59.53125 z "
       xlink:href="#path3000"
       style="fill:none;stroke:#000000;stroke-width:1px;stroke-linecap:butt;stroke-linejoin:miter;stroke-opacity:1"
       id="track-mid"
       inkscape:href="#path3000"
       d="m 316.21875,74.71875 c -6.29026,0.282101 -19.58046,8.626362 -30.59375,19.8125 -5.50665,5.59307 -10.57703,11.50554 -14.71875,16.53125 -4.14172,5.02571 -6.58735,8.4936 -10.15625,12.0625 -12.16867,12.16867 -28.33768,12.47325 -46,7.65625 -17.66232,-4.817 -36.5302,-17.96666 -48.34375,-41.59375 -3.97988,-7.959761 -7.28702,-10.368536 -9.1875,-11.21875 -1.90048,-0.850214 -3.82092,-0.988098 -7.84375,0.21875 -8.04565,2.413696 -19.84218,11.42109 -32.5625,17.78125 -14.55936,7.27968 -21.59375,19.78559 -21.59375,46.40625 0,40 0.01462,77.24523 2.4375,107.53125 2.42288,30.28602 8.02807,53.57336 15,64.03125 3.05338,4.58007 4.68962,5.23674 8.0625,5.75 3.37288,0.51326 9.20228,-0.21287 16.65625,-2.875 14.90794,-5.32427 34.90573,-17.57786 55.8125,-28.03125 11.36016,-5.68008 21.71428,-8.80303 32.1875,-7.78125 10.47322,1.02178 19.14184,6.43164 25.96875,12.5 13.65382,12.13673 24.60439,28.15851 48.15625,47 21.23485,16.98788 59.46638,29.42922 90.375,31.71875 15.45431,1.14476 29.14079,-0.33237 36.9375,-3.1875 3.89835,-1.42757 6.14048,-3.09654 7.03125,-4.09375 0.89077,-0.99721 0.9375,-1.04745 0.9375,-2.5625 0,-16.19824 -4.38386,-22.9111 -14.96875,-32.4375 -10.58489,-9.5264 -28.12646,-19.79797 -48.9375,-35.40625 -20.32442,-15.24331 -36.92979,-27.76582 -45.71875,-45.34375 -4.39448,-8.78896 -6.13044,-19.55592 -3.46875,-29.71875 2.66169,-10.16283 8.86772,-19.14897 17.5625,-27.84375 7.5,-7.5 12.60439,-12.80718 15.09375,-16.4375 2.48936,-3.63032 2.9375,-4.95242 2.9375,-9.0625 0,-8.22016 -6.53125,-28.40625 -21.53125,-68.40625 -4.11675,-10.977995 -8.51703,-17.085298 -11.75,-19.9375 -3.23297,-2.852202 -4.92795,-3.190463 -7.78125,-3.0625 z" />
    <path
       inkscape:label="#track-outer"
       inkscape:connector-curvature="0"
       id="path3000"
       d="m 80,142.36218 0,80 c 0,-40 0,-50 0,-80 0,-30 10,-49.999997 30,-59.999997 20,-10 50,-40 70,0 20,39.999997 60,39.999997 70,29.999997 10,-10 70,-99.999997 100,-19.999997 30,79.999997 30,79.999997 0,109.999997 -30,30 -10,50 30,80 40,30 70,40 70,80 0,40 -110,30 -160,-10 -50,-40 -50,-70 -90,-50 -40,20 -80,50 -100,20 -20,-30 -20,-100 -20,-180 z"
       style="fill:none;stroke:#000000;stroke-width:1px;stroke-linecap:butt;stroke-linejoin:miter;stroke-opacity:1" />
  </g>
</svg>
